<?xml version="1.0" standalone="no"?>
<!DOCTYPE svg PUBLIC "-//W3C//DTD SVG 20010904//EN"
 "http://www.w3.org/TR/2001/REC-SVG-20010904/DTD/svg10.dtd">
<svg version="1.0" xmlns="http://www.w3.org/2000/svg"
 width="256.000000pt" height="256.000000pt" viewBox="0 0 256.000000 256.000000"
 preserveAspectRatio="xMidYMid meet">

<g transform="translate(0.000000,256.000000) scale(0.100000,-0.100000)"
fill="#000000" stroke="none">
<path d="M705 2530 c-21 -22 -29 -42 -33 -80 -7 -78 -34 -63 -37 22 -2 53 -10
67 -27 50 -8 -8 -17 -6 -36 8 -35 28 -44 25 -40 -15 1 -22 -3 -39 -10 -44 -17
-10 40 -61 68 -61 17 0 36 -27 26 -38 -3 -2 -20 5 -38 16 -35 22 -155 72 -171
72 -5 0 -7 -17 -4 -40 3 -22 2 -38 -3 -35 -4 2 -44 0 -90 -5 -58 -7 -95 -17
-126 -35 -45 -27 -53 -42 -32 -63 10 -10 6 -18 -20 -38 -39 -31 -72 -92 -72
-135 0 -25 3 -30 16 -25 13 5 15 1 9 -21 -41 -161 -46 -288 -16 -406 29 -110
54 -152 146 -244 82 -81 83 -83 78 -123 -5 -35 -3 -40 14 -40 34 0 44 -24 41
-91 -3 -55 -6 -65 -27 -75 l-23 -12 23 -12 c13 -7 26 -14 27 -16 2 -1 -6 -15
-18 -31 -12 -17 -18 -36 -14 -46 7 -18 49 -23 59 -7 3 6 11 10 17 10 12 0 3
-71 -13 -101 -12 -24 -45 -25 -54 -1 -6 16 -8 16 -21 -3 -15 -20 -15 -20 -26
-1 -10 18 -12 17 -29 -15 -10 -19 -18 -44 -19 -56 0 -14 -6 -23 -15 -23 -17 0
-55 56 -55 82 0 24 30 50 49 43 28 -11 35 -10 38 6 2 9 -8 30 -22 47 -25 30
-25 33 -11 54 9 12 16 35 16 50 0 24 -4 28 -28 28 -15 0 -33 -5 -40 -12 -9 -9
-17 -5 -36 15 -30 32 -83 39 -71 10 4 -10 12 -66 16 -125 18 -213 83 -296 216
-275 78 13 132 73 159 177 14 56 15 79 5 165 -6 55 -18 119 -25 142 -11 36
-11 45 0 54 11 9 10 15 -4 34 -9 12 -23 20 -29 18 -7 -3 -13 2 -13 12 0 10 5
14 13 10 6 -4 -3 7 -20 24 -18 17 -38 29 -45 27 -7 -1 -10 -1 -6 1 4 2 5 10 2
17 -3 8 5 16 21 20 67 17 115 86 115 163 0 55 -110 279 -128 261 -7 -7 -12
-18 -12 -26 0 -12 -5 -11 -26 3 -39 25 -52 6 -26 -39 l21 -35 -25 -16 c-35
-23 -30 -41 14 -49 50 -8 88 -38 102 -81 12 -36 6 -90 -11 -101 -16 -10 -49 7
-49 25 0 14 -11 20 -42 25 -31 5 -52 17 -79 45 -47 50 -56 81 -24 81 30 0 39
14 19 30 -8 7 -13 19 -10 27 3 8 -2 17 -12 20 -9 3 -28 15 -41 27 l-24 21 12
-23 c7 -13 19 -26 27 -29 8 -3 14 -10 14 -15 0 -6 -7 -8 -15 -4 -27 10 -16 -3
17 -21 26 -13 29 -18 15 -21 -10 -2 -25 2 -33 9 -29 24 -26 -2 8 -58 36 -62
86 -103 124 -103 36 0 29 -28 -9 -39 l-32 -10 40 1 c22 0 51 0 64 -1 24 -1 24
-1 5 -22 -13 -15 -14 -20 -5 -17 39 12 71 98 57 152 -11 44 -54 86 -97 92 -47
8 -50 18 -8 33 l31 11 -26 31 c-39 46 -35 62 9 33 24 -16 25 -15 25 5 0 40 17
21 65 -73 39 -76 48 -103 48 -147 1 -60 -20 -110 -56 -133 -31 -21 -128 -10
-170 18 -74 50 -132 172 -144 305 -5 56 -4 64 9 58 12 -4 18 3 23 29 l6 35 31
-26 c47 -40 97 -24 64 20 -15 19 -15 19 -9 -2 13 -53 -70 -4 -86 50 l-9 32 -1
-42 c-1 -47 -9 -73 -22 -73 -25 0 6 210 42 285 12 24 17 30 14 15 -23 -106
-14 -180 27 -216 12 -11 18 -13 14 -6 -4 7 -2 12 6 12 7 0 19 4 27 9 11 7 9
14 -9 38 -39 54 -48 157 -14 170 8 3 14 13 14 22 0 10 6 26 14 36 13 18 15 17
21 -20 14 -76 28 -85 88 -60 14 6 17 2 17 -22 0 -48 -42 -71 -70 -38 -14 16
-30 20 -30 6 0 -13 42 -63 48 -57 2 3 -1 12 -7 20 -11 13 -8 14 19 6 39 -11
73 1 105 37 l24 28 1 -32 c0 -23 -8 -38 -31 -57 -17 -14 -37 -26 -45 -26 -13
0 -13 -3 0 -22 18 -25 21 -68 6 -68 -52 0 -130 87 -162 180 -6 20 -7 19 -3 -9
8 -55 51 -118 111 -162 51 -37 58 -40 72 -25 13 13 14 21 4 53 -11 36 -10 38
23 66 22 18 37 40 41 63 10 54 -8 62 -50 20 -19 -20 -37 -36 -38 -36 -2 0 -3
22 -3 49 0 27 -3 52 -7 56 -4 4 -19 -2 -34 -14 -33 -26 -54 -14 -54 31 0 36
26 88 44 88 8 0 16 10 19 21 5 18 -2 14 -34 -17 l-40 -39 11 30 c10 28 7 27
-34 -16 -32 -33 -49 -63 -61 -104 -20 -68 -14 -113 21 -155 l26 -30 -26 0
c-15 0 -30 8 -36 19 -14 28 -12 127 4 190 39 142 171 227 322 205 l59 -8 -61
-6 c-72 -6 -84 -14 -125 -87 -20 -35 -36 -52 -45 -49 -9 3 -14 -2 -14 -14 0
-11 4 -20 8 -20 14 0 48 42 71 87 20 40 54 73 75 73 6 0 -5 -15 -22 -33 -19
-20 -35 -48 -38 -69 -10 -56 12 -58 61 -5 52 57 79 64 158 43 34 -9 109 -29
167 -44 l105 -27 -193 -3 -193 -2 3 -733 3 -732 23 -57 c14 -34 42 -76 67
-102 80 -80 179 -110 395 -121 140 -7 172 -16 190 -50 l13 -24 32 35 32 34 94
0 c244 1 361 33 445 122 54 58 79 111 93 198 12 73 15 977 4 1257 l-6 173
-191 2 c-184 3 -189 3 -131 16 33 7 98 25 145 39 47 14 107 26 134 27 46 1 50
-1 91 -48 45 -53 65 -54 65 -5 0 19 -12 42 -36 69 -20 22 -32 40 -27 40 21 0
64 -43 84 -83 36 -71 69 -98 69 -57 0 11 -5 17 -13 15 -7 -3 -26 18 -45 50
-42 71 -64 85 -127 84 -47 -1 -48 -1 -19 -10 37 -11 104 -81 104 -109 0 -31
-17 -24 -46 19 -25 39 -65 61 -109 61 -12 0 -61 -13 -110 -30 -49 -16 -90 -28
-93 -26 -5 6 109 64 173 87 l50 19 -50 -6 -50 -5 35 24 c38 26 171 80 178 72
12 -12 -32 -55 -69 -67 l-42 -14 89 0 c80 1 94 -2 143 -29 99 -55 152 -151
155 -281 1 -76 -11 -104 -46 -104 -18 0 -18 1 3 29 14 19 23 48 25 83 l4 53
-13 -57 c-8 -33 -24 -69 -37 -83 -21 -22 -22 -28 -10 -35 8 -5 20 -10 27 -10
6 0 13 -6 16 -12 2 -7 14 7 27 32 20 39 22 54 17 125 -6 75 -5 78 8 47 33 -77
59 -282 36 -282 -5 0 -12 6 -14 13 -3 6 -6 -1 -6 -16 -1 -40 -30 -84 -63 -98
-20 -8 -25 -15 -19 -23 7 -8 4 -16 -10 -24 -25 -16 -16 -32 17 -32 28 0 29 -2
9 -39 -21 -43 -72 -80 -115 -87 -30 -5 -40 -11 -42 -28 -5 -35 -50 -28 -60 9
-18 70 28 139 104 151 44 7 49 26 14 49 l-24 16 21 39 c26 46 19 57 -21 36
-29 -15 -30 -15 -36 9 -4 14 -10 25 -14 24 -11 -1 -111 -210 -117 -246 -14
-72 44 -175 105 -188 17 -4 30 -10 30 -15 0 -5 -18 -22 -39 -40 -22 -17 -43
-41 -47 -53 -4 -12 -12 -25 -18 -29 -8 -5 -7 -13 2 -28 10 -16 10 -25 2 -35
-17 -20 -36 -231 -28 -298 9 -72 40 -130 91 -171 34 -27 46 -31 102 -31 49 0
70 5 92 21 57 43 93 143 93 262 0 34 7 78 14 97 14 33 14 35 -5 35 -25 0 -60
-18 -76 -39 -9 -13 -14 -14 -24 -3 -7 6 -26 12 -41 12 -24 0 -28 -4 -28 -28 0
-15 7 -38 16 -50 15 -22 15 -25 -3 -45 -25 -28 -33 -50 -23 -66 6 -10 12 -10
28 -2 30 16 56 -12 48 -53 -7 -35 -56 -92 -56 -65 0 9 -10 38 -21 64 -18 41
-23 46 -31 31 -9 -16 -11 -16 -28 -1 -16 14 -18 14 -23 0 -17 -44 -67 4 -67
64 0 38 2 41 19 31 48 -25 72 3 44 51 -18 30 -18 30 7 49 14 11 20 20 13 20
-28 0 -43 32 -43 89 0 62 11 81 47 81 23 0 25 11 8 67 -3 7 33 49 79 93 133
129 171 231 163 440 -2 69 -11 148 -19 177 -14 48 -13 52 3 56 15 4 16 10 8
47 -13 57 -22 71 -65 109 -33 30 -35 33 -19 45 23 17 14 30 -39 61 -39 23
-172 50 -209 42 -7 -1 -10 12 -8 36 3 37 1 38 -21 32 -12 -4 -61 -25 -107 -46
-46 -21 -85 -39 -86 -39 -2 0 -1 9 2 20 3 11 13 20 23 20 28 0 84 50 71 63 -6
6 -11 26 -11 44 0 37 -6 40 -38 17 -13 -9 -31 -13 -42 -9 -21 7 -26 -12 -22
-76 1 -15 -4 -32 -12 -38 -12 -10 -15 -4 -21 31 -7 45 -28 85 -54 105 -11 8
-51 12 -116 11 l-100 -2 95 -6 c52 -3 103 -9 112 -14 31 -14 49 -71 42 -128
-8 -64 -23 -98 -24 -53 0 17 -4 45 -9 63 -10 34 1 44 18 15 6 -10 11 -13 11
-6 0 19 -72 93 -90 93 -23 0 -40 -20 -40 -46 0 -34 -17 -38 -42 -12 l-23 24
-25 -25 c-14 -13 -19 -20 -11 -16 9 5 12 4 7 -3 -10 -17 -36 -15 -36 2 0 8 5
27 11 42 7 21 7 34 -2 51 -17 32 -31 29 -19 -3 6 -15 7 -48 4 -75 -8 -56 5
-63 49 -28 21 16 31 18 46 10 35 -19 51 -13 51 18 0 41 25 59 50 36 23 -21 24
-50 6 -119 -13 -52 -33 -49 -21 3 9 41 -13 51 -41 18 -12 -14 -25 -23 -28 -20
-3 4 -6 -7 -6 -23 l0 -29 28 40 27 40 3 -35 c3 -32 23 -60 44 -60 5 0 8 10 7
23 -4 42 1 68 11 62 12 -8 13 -102 1 -109 -4 -3 -22 0 -38 6 -28 10 -34 9 -71
-20 -61 -49 -104 -64 -152 -53 -57 13 -125 56 -149 94 -24 38 -41 124 -23 113
7 -4 12 -16 12 -27 0 -10 9 -28 21 -40 18 -18 28 -20 78 -14 52 6 55 6 36 -9
-18 -15 -16 -15 23 0 51 20 61 14 38 -22 -23 -34 -16 -39 36 -23 40 13 43 17
46 54 2 22 9 43 15 47 7 5 3 8 -12 8 -20 0 -22 -4 -17 -24 9 -35 -9 -76 -34
-76 -17 0 -18 3 -10 26 6 14 8 29 5 34 -2 4 -47 6 -99 5 -89 -3 -96 -2 -102
17 -4 14 -1 24 10 30 20 11 20 27 0 49 -9 10 -13 23 -9 28 9 16 42 13 49 -4
12 -31 76 -14 76 20 0 35 -26 55 -72 55 -33 0 -46 -6 -69 -32 -16 -18 -29 -36
-29 -40 0 -11 -30 -10 -30 1 0 5 -12 23 -26 40 -21 26 -33 31 -69 31 -62 0
-97 -44 -63 -78 18 -18 66 -15 77 6 8 14 13 15 30 4 12 -7 21 -8 21 -2 0 12
-34 30 -58 30 -15 0 -19 -5 -15 -20 7 -27 -32 -28 -47 -1 -11 21 9 51 34 51
30 0 76 -23 90 -45 18 -27 20 -39 7 -31 -5 3 -20 -3 -32 -14 l-24 -20 23 -20
c19 -15 21 -23 13 -39 -10 -17 -20 -19 -106 -17 -52 2 -97 1 -99 -1 -2 -3 0
-18 4 -34 6 -21 5 -29 -4 -29 -22 0 -36 24 -36 62 0 30 -4 38 -17 37 -10 0
-13 -3 -7 -5 8 -3 10 -19 7 -44 -6 -43 5 -53 70 -65 42 -8 45 -3 17 25 -40 40
-15 53 43 23 30 -15 31 -15 17 1 -13 17 -11 18 41 11 61 -8 79 4 95 60 l8 30
4 -32 c12 -110 -155 -222 -261 -175 -23 11 -53 31 -66 46 -25 26 -64 35 -76
16 -13 -22 -34 -9 -41 25 -8 44 3 96 17 74 5 -7 9 -29 9 -46 0 -35 5 -39 30
-23 10 6 14 21 11 46 -3 42 10 39 40 -10 17 -27 19 -28 19 -9 0 23 -40 73 -59
73 -6 0 -11 -17 -11 -39 0 -51 -16 -61 -24 -16 -3 19 -9 50 -12 68 -8 44 25
89 50 68 9 -7 16 -24 16 -38 0 -29 21 -39 50 -23 17 9 25 7 47 -9 39 -32 53
-27 52 17 -2 31 -3 32 -6 9 -5 -35 -21 -31 -50 13 -14 19 -23 26 -23 17 0 -9
-10 -23 -22 -32 -22 -15 -23 -14 -32 12 -12 37 -25 53 -45 53 -16 0 -65 -47
-88 -85 -11 -18 -12 -18 -13 -2 0 26 24 80 45 97 12 10 50 17 114 21 l96 5
-101 2 c-99 2 -101 2 -129 -28z m641 6 c15 -12 17 -18 8 -33 -6 -10 -21 -20
-34 -21 -19 -3 -22 0 -17 17 8 30 -24 27 -64 -6 -25 -21 -30 -23 -21 -8 29 56
89 79 128 51z m484 -10 c0 -3 -4 -8 -10 -11 -5 -3 -10 -1 -10 4 0 6 5 11 10
11 6 0 10 -2 10 -4z m-1204 -73 c-7 -17 -8 -17 -17 0 -6 9 -7 27 -3 40 l7 22
10 -22 c5 -12 6 -30 3 -40z m1144 22 c0 -13 -4 -27 -10 -30 -6 -4 -10 8 -10
30 0 22 4 34 10 30 6 -3 10 -17 10 -30z m-1180 14 c0 -6 -4 -7 -10 -4 -5 3
-10 1 -10 -5 0 -6 -4 -8 -10 -5 -16 10 -11 21 10 22 11 1 20 -3 20 -8z m658
-42 c17 -13 15 -27 -4 -27 -8 0 -12 4 -9 10 7 12 -34 23 -66 18 -13 -2 -23 -9
-21 -17 1 -7 -4 -11 -13 -9 -28 5 -21 23 14 34 35 11 78 8 99 -9z m-667 3 c19
-11 26 -30 10 -30 -5 0 -19 9 -32 20 -26 21 -11 27 22 10z m135 -61 c-12 -56
-14 -61 -21 -36 -8 29 0 74 17 95 18 21 18 9 4 -59z m1095 51 c-12 -11 -28
-17 -34 -13 -12 8 20 33 42 33 12 -1 10 -6 -8 -20z m-1223 -72 c18 -11 31 -23
28 -25 -3 -3 -38 2 -79 11 -72 16 -117 43 -117 70 0 16 113 -22 168 -56z m59
25 c25 -33 53 -93 43 -93 -10 0 -70 87 -70 102 0 13 12 9 27 -9z m1088 -25
c-20 -39 -44 -68 -57 -68 -11 0 6 34 39 78 31 41 40 36 18 -10z m-464 -121
c19 -14 50 -32 69 -40 33 -14 23 -15 -155 -16 l-190 0 50 23 c60 27 110 81
126 137 l13 40 27 -59 c16 -35 40 -69 60 -85z m-975 92 c-74 -39 -147 -112
-180 -184 -15 -30 -31 -55 -36 -55 -30 0 10 80 72 146 41 44 48 55 29 49 -17
-5 -22 -4 -19 6 7 20 60 49 110 58 78 16 84 11 24 -20z m1864 -2 c49 -24 70
-54 29 -42 -19 6 -13 -4 27 -46 53 -55 84 -105 84 -134 0 -27 -17 -8 -51 56
-38 70 -108 137 -182 174 l-52 25 50 -6 c28 -3 70 -16 95 -27z m-1506 -37 c34
-15 70 -35 81 -44 22 -17 9 -14 -126 29 -80 25 -119 16 -165 -41 -41 -49 -67
-48 -41 2 33 64 97 98 161 87 16 -3 57 -18 90 -33z m187 -46 c27 -20 49 -37
49 -39 0 -6 -74 17 -103 32 -23 12 -26 17 -16 29 15 19 14 19 70 -22z m758 22
c10 -12 7 -17 -16 -29 -36 -19 -109 -39 -97 -27 16 15 89 69 95 69 4 1 12 -5
18 -13z m269 -818 c-3 -716 -3 -723 -25 -776 -54 -132 -152 -198 -319 -212
-55 -5 -137 -9 -184 -10 -73 0 -91 -3 -120 -23 l-34 -24 -34 24 c-29 19 -47
23 -116 23 -108 0 -235 15 -301 36 -124 39 -204 142 -225 289 -5 40 -10 350
-10 733 l0 662 685 0 686 0 -3 -722z m432 310 c0 -58 -25 -159 -51 -211 -49
-95 -100 -137 -165 -137 -25 0 -34 3 -26 9 11 7 10 9 -3 14 -9 4 -13 3 -10 -3
3 -6 2 -10 -4 -10 -13 0 -25 20 -17 28 4 3 30 6 59 5 48 -1 49 -1 20 8 -38 11
-45 39 -9 39 38 0 88 42 128 105 43 70 46 82 16 61 -12 -9 -28 -16 -35 -16
-20 0 -15 18 6 25 12 4 18 12 14 21 -3 7 0 14 6 14 6 0 21 20 33 45 12 25 26
45 30 45 4 0 8 -19 8 -42z m-260 12 c0 -24 4 -25 35 -4 35 23 33 -1 -2 -38
-28 -29 -29 -27 22 -43 24 -7 18 -25 -9 -25 -40 0 -90 -41 -105 -88 -17 -56
-7 -107 29 -144 31 -30 26 -35 -15 -16 -38 17 -65 76 -65 141 0 43 8 69 36
123 20 38 41 79 47 91 15 28 27 29 27 3z m-1750 -390 c8 -5 12 -12 9 -15 -8
-8 -39 5 -39 16 0 11 11 11 30 -1z m1816 -5 c-23 -17 -36 -19 -36 -6 0 11 18
19 40 20 11 0 10 -3 -4 -14z m-1746 -56 c12 -8 11 -9 -6 -4 -16 4 -23 0 -29
-17 -6 -21 -8 -21 -12 -4 -3 10 1 22 9 27 17 11 20 11 38 -2z m1703 -39 c-7
-8 -22 24 -16 34 4 5 10 1 13 -10 4 -10 6 -21 3 -24z m-1698 10 c3 -5 1 -10
-5 -10 -6 0 -18 -7 -27 -15 -22 -23 -30 -9 -8 15 20 22 31 25 40 10z m1630 1
c3 -5 1 -12 -5 -16 -5 -3 -10 1 -10 9 0 18 6 21 15 7z m58 -16 c10 -14 14 -25
9 -25 -11 0 -52 35 -52 44 0 15 27 3 43 -19z m-1653 -26 c0 -5 -14 -9 -31 -9
-26 0 -29 3 -20 14 12 14 51 10 51 -5z m1628 3 c2 -7 -7 -12 -22 -12 -27 0
-35 15 -13 23 17 7 30 3 35 -11z m-58 -16 c0 -3 -4 -8 -10 -11 -5 -3 -10 -1
-10 4 0 6 5 11 10 11 6 0 10 -2 10 -4z m-1564 -53 c20 -46 22 -130 5 -172 -12
-26 -54 -61 -76 -61 -13 0 -3 39 21 73 l25 38 -27 -7 -27 -7 23 31 c20 26 22
39 17 86 -4 45 -3 56 9 56 8 0 22 -16 30 -37z m1601 -29 c-2 -52 1 -68 16 -78
23 -18 22 -30 -3 -23 -25 6 -25 5 0 -35 18 -30 27 -68 15 -68 -21 0 -57 29
-71 58 -29 62 -4 212 36 212 5 0 8 -30 7 -66z m-1893 -90 c9 -8 16 -22 16 -30
0 -12 6 -11 29 5 72 51 80 7 14 -73 -26 -31 -25 -43 4 -28 24 13 53 -2 53 -28
0 -13 -5 -17 -19 -13 -24 6 -61 -29 -61 -57 0 -49 59 -112 102 -109 10 0 10 2
1 6 -16 6 -16 30 -2 72 13 37 25 40 35 9 3 -13 14 -32 23 -42 15 -18 15 -19
-7 -14 -12 4 -20 2 -16 -3 8 -14 40 -11 54 6 10 12 10 15 -3 15 -21 0 -40 27
-33 46 5 13 9 14 21 4 39 -32 85 30 85 114 0 49 7 76 21 76 12 0 11 -104 -2
-160 -29 -130 -148 -195 -250 -138 -60 33 -81 87 -89 222 -3 61 -9 117 -13
124 -12 18 18 15 37 -4z m2180 5 c-3 -6 -10 -64 -13 -128 -11 -174 -47 -231
-155 -238 -72 -5 -122 25 -158 97 -29 57 -48 181 -33 217 6 16 8 15 17 -7 5
-14 11 -51 12 -83 2 -48 8 -63 29 -85 23 -23 30 -25 47 -14 27 17 32 15 28
-10 -2 -12 -13 -27 -25 -34 -17 -8 -20 -13 -11 -22 14 -14 45 -16 52 -3 4 5
-4 7 -16 3 l-22 -5 22 28 c12 15 22 34 22 41 0 28 18 13 35 -28 16 -40 16 -43
-1 -55 -25 -18 0 -17 36 2 39 20 60 53 60 92 0 36 -35 68 -64 57 -21 -8 -22
19 -1 40 16 15 37 13 64 -8 19 -14 9 4 -30 54 -14 19 -29 43 -32 53 -10 27 20
33 52 10 l27 -21 17 29 c9 16 23 29 32 29 9 0 13 -5 9 -11z"/>
<path d="M554 2117 c-3 -8 -4 -315 -2 -683 l3 -669 23 -57 c30 -74 100 -138
176 -162 61 -19 202 -35 317 -36 59 0 80 -4 95 -18 18 -18 20 -18 44 -1 20 14
60 20 200 27 96 6 192 15 212 22 66 20 120 69 158 145 l35 70 0 685 0 685
-628 3 c-519 2 -628 0 -633 -11z m1244 -684 l-3 -678 -24 -53 c-13 -30 -42
-69 -67 -91 -65 -57 -123 -72 -309 -78 -113 -4 -167 -9 -183 -19 -19 -12 -26
-12 -50 -1 -17 9 -80 16 -177 20 -88 4 -171 13 -201 22 -107 32 -182 108 -203
206 -7 33 -11 274 -11 699 l0 650 615 0 616 0 -3 -677z"/>
<path d="M1226 2003 c7 -40 11 -49 19 -42 8 8 -7 79 -17 79 -5 0 -6 -17 -2
-37z"/>
<path d="M1099 2012 c5 -9 19 -26 30 -36 31 -28 28 4 -2 32 -28 27 -41 28 -28
4z"/>
<path d="M1270 2006 c0 -13 -3 -31 -6 -40 -3 -9 -2 -16 4 -16 5 0 12 18 14 40
2 22 0 40 -4 40 -5 0 -8 -11 -8 -24z"/>
<path d="M1316 1998 c-19 -27 -20 -44 -3 -54 6 -4 9 -4 5 1 -4 4 -1 23 7 41
16 39 13 43 -9 12z"/>
<path d="M1023 1970 c6 -22 15 -40 20 -40 5 0 6 7 3 16 -3 9 -9 27 -12 40 -3
13 -10 24 -14 24 -4 0 -2 -18 3 -40z"/>
<path d="M1361 2000 c0 -8 -8 -27 -15 -42 -8 -16 -11 -28 -6 -28 15 0 32 39
27 63 -2 12 -5 15 -6 7z"/>
<path d="M967 1993 c-4 -6 2 -27 12 -47 11 -20 21 -33 24 -29 6 12 -30 87 -36
76z"/>
<path d="M1387 1945 c-9 -19 -13 -35 -8 -35 5 0 12 6 14 13 3 6 6 2 6 -10 1
-28 21 -31 21 -4 0 11 5 23 10 26 6 3 10 14 10 23 0 13 -2 13 -16 -4 -15 -19
-15 -18 -11 4 8 33 -7 26 -26 -13z"/>
<path d="M937 1938 c18 -18 35 -30 38 -27 9 10 -35 59 -53 59 -12 0 -8 -8 15
-32z"/>
<path d="M1452 1905 c-29 -45 -12 -45 22 0 17 22 22 35 14 35 -7 0 -23 -16
-36 -35z"/>
<path d="M850 1921 c0 -14 60 -54 68 -46 4 3 -1 11 -10 16 -9 5 -24 16 -32 24
-17 17 -26 19 -26 6z"/>
<path d="M1504 1909 c-4 -8 -3 -9 4 -5 18 11 14 -6 -8 -34 -21 -27 -26 -45
-10 -35 5 3 18 18 29 34 18 24 19 31 7 40 -11 9 -16 9 -22 0z"/>
<path d="M1194 1848 c1 -59 -3 -71 -30 -110 -17 -24 -35 -57 -39 -74 l-9 -29
-4 28 c-2 16 1 43 7 60 l11 32 -30 -33 c-26 -28 -30 -40 -30 -89 0 -55 0 -56
-20 -38 -18 17 -20 17 -20 1 0 -9 6 -19 14 -22 8 -3 17 -17 21 -32 7 -25 8
-25 15 -7 4 11 5 43 3 70 -3 28 -1 61 5 74 8 22 10 18 16 -30 l8 -54 29 60
c16 33 35 71 43 85 34 60 36 74 23 125 l-13 50 0 -67z"/>
<path d="M807 1884 c-3 -3 7 -20 23 -37 38 -41 46 -32 11 11 -15 17 -30 29
-34 26z"/>
<path d="M1546 1825 c-26 -47 -14 -56 13 -10 23 40 25 45 13 45 -4 0 -16 -16
-26 -35z"/>
<path d="M775 1790 c-4 -6 -13 -9 -21 -6 -8 3 -14 1 -14 -5 0 -5 18 -8 40 -7
22 2 38 8 37 13 -5 15 -34 18 -42 5z"/>
<path d="M1205 1718 c-12 -52 -15 -88 -10 -115 l8 -38 7 33 c11 48 30 64 31
27 1 -17 4 -41 8 -55 l7 -25 13 24 c7 13 9 21 3 17 -12 -7 -22 26 -22 74 l-1
35 -19 -24 c-23 -27 -24 -21 -9 49 18 82 4 81 -16 -2z"/>
<path d="M1588 1772 c-30 -18 -38 -35 -12 -25 14 5 15 3 5 -15 -7 -12 -8 -22
-2 -22 5 0 11 7 15 15 3 8 15 15 26 15 12 0 20 7 20 17 0 13 -3 14 -12 5 -20
-20 -32 -13 -13 8 22 24 10 25 -27 2z"/>
<path d="M710 1752 c0 -11 67 -48 74 -41 3 3 -12 16 -34 28 -22 12 -40 18 -40
13z"/>
<path d="M1625 1690 c-16 -16 -25 -30 -19 -30 10 1 64 46 64 55 0 13 -18 3
-45 -25z"/>
<path d="M685 1690 c-3 -5 1 -10 9 -10 8 0 18 -5 22 -11 5 -9 -1 -10 -20 -5
-40 10 -31 -8 11 -21 39 -12 58 -8 34 6 -9 6 -6 10 11 16 l23 8 -25 4 c-14 3
-29 9 -34 14 -13 12 -23 11 -31 -1z"/>
<path d="M1663 1643 c-7 -3 -13 -11 -13 -19 0 -8 -7 -17 -15 -20 -8 -4 -12
-10 -9 -15 7 -13 44 9 44 26 0 7 5 15 12 17 7 3 8 7 3 10 -6 3 -16 3 -22 1z"/>
<path d="M1281 1630 c-1 -18 19 -76 38 -109 8 -14 17 -36 22 -50 l7 -26 1 24
c1 13 -10 47 -23 75 -13 28 -28 62 -34 76 -6 14 -11 18 -11 10z"/>
<path d="M1685 1610 c-3 -5 -1 -10 4 -10 6 0 11 5 11 10 0 6 -2 10 -4 10 -3 0
-8 -4 -11 -10z"/>
<path d="M1148 1594 c-4 -6 -9 -28 -11 -50 -3 -21 -2 -31 0 -21 7 26 19 21 33
-13 18 -44 24 -30 6 16 -8 22 -16 48 -18 59 -2 12 -6 16 -10 9z"/>
<path d="M650 1581 c0 -6 6 -11 14 -11 7 0 28 -3 45 -6 17 -4 31 -2 31 3 0 5
-6 10 -12 10 -7 0 -28 3 -45 7 -22 5 -33 4 -33 -3z"/>
<path d="M1020 1531 c-6 -16 -10 -40 -8 -52 2 -18 7 -10 20 29 17 55 9 72 -12
23z"/>
<path d="M1222 1515 c-15 -34 -15 -40 1 -26 8 6 17 8 20 4 9 -8 8 7 -2 30 -6
17 -8 16 -19 -8z"/>
<path d="M1630 1520 c0 -5 18 -10 40 -10 22 0 40 5 40 10 0 6 -18 10 -40 10
-22 0 -40 -4 -40 -10z"/>
<path d="M650 1510 c0 -5 18 -10 40 -10 22 0 40 5 40 10 0 6 -18 10 -40 10
-22 0 -40 -4 -40 -10z"/>
<path d="M1276 1501 c-4 -5 -2 -20 3 -33 9 -21 10 -21 10 10 1 32 -3 39 -13
23z"/>
<path d="M1060 1481 c0 -25 6 -27 13 -6 4 8 2 17 -3 20 -6 4 -10 -3 -10 -14z"/>
<path d="M1250 1469 c0 -5 5 -7 10 -4 6 3 10 8 10 11 0 2 -4 4 -10 4 -5 0 -10
-5 -10 -11z"/>
<path d="M674 1435 c-21 -23 -21 -35 -2 -35 5 0 14 11 20 25 7 15 17 24 25 21
8 -3 11 -1 8 4 -10 16 -29 11 -51 -15z"/>
<path d="M1087 1435 c-50 -17 -87 -52 -87 -81 0 -21 50 -74 70 -74 17 0 40
-32 40 -56 0 -17 -8 -27 -24 -33 -12 -5 -33 -27 -46 -48 -29 -49 -33 -176 -7
-217 9 -14 17 -31 17 -37 0 -7 -44 -55 -97 -107 -98 -94 -93 -99 10 -9 57 49
73 57 63 31 -3 -8 -2 -12 4 -9 6 3 10 19 10 35 0 16 6 35 13 42 14 15 21 61 7
53 -13 -8 -30 29 -30 64 0 23 4 29 15 25 8 -4 15 -1 15 5 0 6 -7 11 -15 11
-11 0 -15 11 -15 39 0 31 6 44 28 61 15 12 21 18 13 14 -9 -4 -12 -2 -9 7 6
19 70 50 117 56 27 4 42 0 55 -12 26 -26 14 -40 -32 -39 -46 0 -48 -1 -28 -22
13 -12 16 -12 25 3 10 17 12 17 26 -1 20 -27 20 -50 -1 -42 -14 5 -15 4 -5 -8
7 -8 28 -20 48 -27 22 -7 31 -15 25 -21 -6 -6 -25 -1 -51 13 -38 20 -115 29
-129 15 -3 -3 18 -6 46 -6 54 0 71 -12 52 -35 -8 -10 -9 -15 -2 -15 6 0 16 8
22 18 9 16 11 15 30 -7 22 -26 23 -30 12 -48 -6 -9 -19 -8 -57 4 -28 9 -57 19
-65 23 -9 4 -21 1 -28 -6 -11 -12 -7 -14 20 -15 18 0 49 -5 68 -12 27 -9 35
-17 35 -37 0 -24 -2 -25 -62 -24 -35 1 -63 -2 -63 -7 0 -5 5 -9 12 -9 6 0 9
-3 5 -6 -3 -3 -1 -19 5 -35 7 -22 7 -33 -2 -44 -10 -12 -9 -20 4 -40 16 -24
46 -34 46 -15 0 5 6 7 13 4 9 -3 14 7 15 33 2 30 0 35 -10 25 -6 -6 -21 -12
-33 -11 -17 1 -16 2 5 9 23 7 23 8 4 9 -22 1 -34 19 -34 49 1 11 6 8 16 -10
16 -30 34 -37 34 -14 0 8 16 20 35 27 28 11 33 17 29 35 -4 16 0 26 15 33 12
7 18 17 15 26 -4 8 -1 15 6 15 6 0 9 4 5 9 -3 5 -1 12 5 16 6 4 8 10 5 15 -3
4 3 25 12 46 16 38 16 38 24 14 5 -19 7 -12 8 28 1 76 -10 92 -64 92 -38 0
-45 3 -45 19 0 20 24 51 40 51 5 0 22 12 39 26 21 17 31 34 30 52 0 24 -1 25
-9 7 -5 -11 -9 -15 -9 -8 -1 6 -4 19 -8 29 -5 13 -3 15 8 9 12 -8 12 -6 0 9
-17 20 -64 46 -83 46 -7 0 6 -9 30 -20 45 -20 57 -36 20 -25 l-23 7 23 -17
c12 -9 22 -21 22 -26 0 -5 -13 0 -30 12 -16 13 -33 20 -37 16 -3 -4 -1 -7 5
-7 7 0 12 -5 12 -11 0 -6 -7 -8 -16 -5 -8 3 -12 2 -9 -4 4 -6 -7 -10 -24 -10
-30 0 -43 14 -19 22 9 3 9 6 0 12 -8 4 -15 -1 -20 -14 -8 -21 -9 -21 -25 -5
-15 14 -17 15 -17 1 0 -19 -16 -21 -23 -3 -3 7 -6 5 -6 -5 -1 -21 -27 -24 -35
-5 -3 6 -4 4 -3 -7 1 -12 -5 -20 -20 -22 -13 -2 -23 -1 -23 2 0 18 23 43 50
54 17 7 29 15 26 17 -6 7 -60 -23 -75 -41 -18 -21 -31 -20 -31 2 0 41 61 73
159 82 l76 7 -60 1 c-33 1 -77 -5 -98 -13z m213 -85 c0 -5 -5 -10 -11 -10 -5
0 -7 5 -4 10 3 6 8 10 11 10 2 0 4 -4 4 -10z m-53 -27 c10 -10 14 -15 9 -10
-16 12 -38 8 -30 -5 12 -20 17 -98 6 -98 -10 0 -22 23 -22 41 0 6 5 7 10 4 6
-3 10 -2 10 3 0 16 -13 22 -27 11 -9 -9 -13 -8 -13 0 0 6 -5 11 -10 11 -6 0
-8 -12 -5 -27 5 -24 4 -25 -4 -7 -12 28 -28 37 -37 23 -4 -8 -3 -9 4 -5 8 5
12 -2 11 -21 -1 -21 -3 -23 -7 -8 l-5 20 -8 -20 c-6 -16 -8 -14 -8 12 -1 17 3
34 8 37 5 3 7 15 4 25 -3 13 1 21 14 24 40 10 82 6 100 -10z m83 -7 c0 -3 -4
-8 -10 -11 -5 -3 -10 -1 -10 4 0 6 5 11 10 11 6 0 10 -2 10 -4z m10 -146 c4
-7 5 -21 3 -31 -5 -16 -7 -16 -20 -4 -8 8 -26 15 -39 15 -21 0 -23 3 -14 19
11 22 57 23 70 1z m-37 -60 c-3 -11 -10 -20 -15 -20 -5 0 -6 -4 -3 -10 7 -12
3 -12 -19 -4 -9 3 -16 17 -16 31 0 13 4 22 8 19 4 -2 14 -1 22 4 20 12 29 4
23 -20z m-113 -329 c0 -5 -7 -11 -15 -15 -15 -5 -20 5 -8 17 9 10 23 9 23 -2z"/>
<path d="M1168 1303 c7 -3 16 -2 19 1 4 3 -2 6 -13 5 -11 0 -14 -3 -6 -6z"/>
<path d="M1630 1442 c0 -5 18 -12 40 -14 22 -2 40 0 40 4 0 5 -8 8 -17 8 -10
0 -28 3 -40 6 -13 4 -23 2 -23 -4z"/>
<path d="M715 1420 c-3 -5 -1 -10 4 -10 6 0 11 5 11 10 0 6 -2 10 -4 10 -3 0
-8 -4 -11 -10z"/>
<path d="M1153 1403 c15 -2 37 -2 50 0 12 2 0 4 -28 4 -27 0 -38 -2 -22 -4z"/>
<path d="M1644 1396 c23 -18 42 -21 51 -6 3 6 -3 10 -14 10 -10 0 -28 3 -38 6
-16 5 -16 4 1 -10z"/>
<path d="M672 1368 c-21 -21 -13 -27 14 -13 15 7 33 11 42 8 10 -4 13 -2 8 5
-9 16 -49 15 -64 0z"/>
<path d="M1641 1353 c-1 -7 -8 -13 -16 -13 -8 0 -15 -4 -15 -10 0 -5 18 -10
40 -10 22 0 40 5 40 10 0 6 -9 10 -19 10 -11 0 -22 6 -24 13 -4 10 -6 10 -6 0z"/>
<path d="M705 1331 c-11 -5 -26 -6 -34 -3 -9 3 -12 1 -7 -6 10 -17 51 -15 66
3 14 16 6 18 -25 6z"/>
<path d="M685 1280 c-8 -13 5 -13 25 0 13 8 13 10 -2 10 -9 0 -20 -4 -23 -10z"/>
<path d="M1590 1283 c0 -5 18 -15 39 -24 35 -15 40 -15 45 -2 9 22 7 30 -3 15
-7 -12 -14 -11 -39 2 -35 18 -42 19 -42 9z"/>
<path d="M723 1268 c-29 -9 -46 -28 -26 -28 16 0 73 25 73 32 0 10 -5 9 -47
-4z"/>
<path d="M1170 1185 c0 -8 5 -15 10 -15 6 0 10 7 10 15 0 8 -4 15 -10 15 -5 0
-10 -7 -10 -15z"/>
<path d="M1205 1180 c-3 -5 1 -10 10 -10 9 0 13 5 10 10 -3 6 -8 10 -10 10 -2
0 -7 -4 -10 -10z"/>
<path d="M1175 1040 c-3 -5 1 -10 9 -10 9 0 16 5 16 10 0 6 -4 10 -9 10 -6 0
-13 -4 -16 -10z"/>
<path d="M1341 1045 c-2 -5 -2 -26 -1 -46 1 -27 -4 -41 -19 -51 -12 -8 -18
-18 -14 -21 3 -4 2 -7 -3 -7 -5 0 -9 -18 -10 -41 0 -33 -6 -47 -37 -75 -21
-20 -34 -40 -31 -46 3 -5 -7 -22 -24 -36 -16 -15 -44 -54 -62 -87 -38 -69 -15
-57 26 13 15 26 38 61 51 77 13 17 40 50 59 73 18 24 34 55 34 68 0 14 9 43
21 65 14 28 19 54 16 82 -2 23 -5 38 -6 32z"/>
<path d="M1200 941 c0 -12 5 -21 10 -21 6 0 10 6 10 14 0 8 -4 18 -10 21 -5 3
-10 -3 -10 -14z"/>
<path d="M1095 840 c9 -16 20 -30 26 -30 6 0 1 14 -11 30 -12 17 -23 30 -26
30 -2 0 2 -13 11 -30z"/>
<path d="M1080 807 c0 -14 5 -29 10 -32 7 -4 8 3 4 22 -9 38 -14 42 -14 10z"/>
<path d="M1110 770 c0 -5 5 -10 11 -10 5 0 7 5 4 10 -3 6 -8 10 -11 10 -2 0
-4 -4 -4 -10z"/>
<path d="M1080 735 c0 -8 4 -15 10 -15 5 0 7 7 4 15 -4 8 -8 15 -10 15 -2 0
-4 -7 -4 -15z"/>
<path d="M939 723 c-13 -16 -12 -17 4 -4 9 7 17 15 17 17 0 8 -8 3 -21 -13z"/>
<path d="M1062 710 c0 -19 2 -27 5 -17 2 9 2 25 0 35 -3 9 -5 1 -5 -18z"/>
<path d="M1031 683 c-9 -10 -10 -18 -3 -25 7 -7 12 -3 17 12 9 27 4 32 -14 13z"/>
<path d="M940 595 c-7 -8 -8 -15 -2 -15 5 0 15 7 22 15 7 8 8 15 2 15 -5 0
-15 -7 -22 -15z"/>
<path d="M1965 1640 c-8 -16 -15 -37 -14 -47 0 -12 3 -9 8 8 5 14 14 35 20 47
6 12 9 22 7 22 -3 0 -12 -13 -21 -30z"/>
<path d="M403 1115 c0 -22 2 -30 4 -17 2 12 2 30 0 40 -3 9 -5 -1 -4 -23z"/>
<path d="M1962 1115 c0 -16 2 -22 5 -12 2 9 2 23 0 30 -3 6 -5 -1 -5 -18z"/>
<path d="M121 924 c0 -11 3 -14 6 -6 3 7 2 16 -1 19 -3 4 -6 -2 -5 -13z"/>
<path d="M2252 865 c0 -16 2 -22 5 -12 2 9 2 23 0 30 -3 6 -5 -1 -5 -18z"/>
<path d="M950 2546 c0 -8 -5 -16 -11 -18 -5 -2 -7 -11 -3 -22 6 -15 9 -13 20
14 17 39 17 40 4 40 -5 0 -10 -6 -10 -14z"/>
<path d="M1182 2535 c0 -16 2 -22 5 -12 2 9 2 23 0 30 -3 6 -5 -1 -5 -18z"/>
<path d="M810 2344 c0 -30 87 -94 126 -94 10 1 1 7 -21 15 -22 8 -55 30 -72
49 -18 20 -33 33 -33 30z"/>
<path d="M1550 2341 c0 -7 -15 -26 -32 -43 -30 -28 -31 -29 -5 -13 29 19 53
53 43 63 -3 3 -6 0 -6 -7z"/>
<path d="M2050 2270 c0 -6 7 -13 15 -17 37 -14 60 -109 31 -132 -10 -8 -19 -6
-39 9 -14 11 -27 20 -30 20 -11 0 -17 -71 -7 -90 16 -30 2 -25 -43 16 -35 32
-41 34 -49 20 -14 -25 9 -82 42 -106 27 -19 29 -24 23 -69 -3 -29 -1 -51 5
-55 14 -8 92 45 130 88 32 36 57 98 49 119 -3 7 -6 4 -6 -6 -2 -30 -37 -90
-73 -123 -42 -39 -84 -65 -92 -57 -13 13 -5 48 15 69 l21 22 -31 7 c-37 8 -71
48 -71 83 l0 26 34 -33 c36 -35 68 -42 116 -28 23 7 23 7 8 -6 -19 -15 -23
-27 -9 -27 11 0 36 37 45 68 7 22 7 22 -20 -3 -15 -14 -35 -25 -45 -25 -21 0
-39 28 -39 60 0 17 4 20 18 15 59 -25 80 -12 89 55 5 35 8 39 20 28 7 -8 17
-34 22 -59 6 -29 9 -36 11 -19 1 23 2 24 11 5 7 -16 8 -14 3 9 -6 33 -35 79
-71 114 -30 28 -37 28 -23 1 7 -11 9 -23 6 -26 -3 -3 -8 1 -12 10 -7 20 -54
51 -54 37z"/>
<path d="M1440 2260 c-21 -7 -21 -8 -5 -9 11 0 27 4 35 9 18 11 5 11 -30 0z"/>
<path d="M2260 1917 c0 -7 -7 -22 -15 -33 -15 -19 -15 -19 -9 1 5 16 4 17 -4
5 -6 -8 -8 -18 -6 -22 7 -10 -44 -33 -53 -24 -4 4 -1 17 6 29 13 20 13 21 -2
8 -10 -7 -17 -24 -17 -37 0 -32 29 -32 68 1 16 13 32 22 36 18 3 -3 6 10 6 30
0 21 -2 37 -5 37 -3 0 -5 -6 -5 -13z"/>
<path d="M380 1670 c6 -11 13 -20 16 -20 2 0 0 9 -6 20 -6 11 -13 20 -16 20
-2 0 0 -9 6 -20z"/>
<path d="M400 1635 c0 -5 5 -17 10 -25 5 -8 10 -10 10 -5 0 6 -5 17 -10 25 -5
8 -10 11 -10 5z"/>
<path d="M310 1440 c-9 -6 -10 -10 -3 -10 6 0 15 5 18 10 8 12 4 12 -15 0z"/>
<path d="M40 551 c0 -4 17 -24 37 -45 l37 -37 -37 -30 c-20 -17 -37 -34 -37
-37 0 -4 23 -5 51 -3 57 3 126 -18 154 -49 10 -11 22 -43 26 -71 9 -55 27 -82
72 -105 33 -18 67 -4 67 27 0 15 5 19 16 15 9 -3 18 -6 20 -6 2 0 4 -15 4 -34
0 -55 38 -90 128 -120 103 -34 213 -56 270 -55 26 1 36 4 22 6 -176 28 -349
76 -378 103 -14 13 -19 34 -21 84 -1 37 2 66 8 66 5 0 31 -9 58 -21 165 -71
560 -114 828 -90 183 16 366 48 462 80 l82 27 -1 -68 c-1 -55 -5 -71 -22 -87
-32 -30 -94 -51 -228 -76 -84 -16 -110 -24 -81 -24 86 -2 280 52 316 87 9 10
23 40 30 67 8 34 18 51 30 53 10 2 17 0 16 -5 -6 -37 27 -51 69 -29 30 16 46
46 56 106 12 72 70 114 172 126 l57 7 -29 24 c-16 12 -35 23 -43 23 -10 0 -7
9 11 27 14 16 30 37 36 49 l11 20 -77 -19 c-113 -28 -152 -58 -152 -117 0 -26
-10 -50 -22 -50 -5 0 -6 15 -2 35 9 50 -11 53 -80 11 -32 -19 -88 -45 -125
-57 -36 -12 -72 -26 -78 -32 -7 -5 -13 -31 -13 -57 l0 -48 -43 -10 c-122 -31
-246 -44 -462 -49 -243 -6 -401 7 -565 45 l-75 17 -3 54 c-3 52 -4 53 -45 69
-23 9 -84 38 -135 64 -51 27 -97 46 -102 43 -6 -3 -10 -22 -10 -42 0 -29 -2
-33 -14 -24 -8 7 -17 27 -20 46 -9 46 -53 81 -123 95 -32 7 -73 16 -90 20 -18
5 -33 5 -33 1z m2212 -54 l-32 -33 37 -19 38 -18 -57 -12 c-57 -12 -90 -28
-122 -61 -24 -24 -28 -14 -20 56 5 48 12 65 29 76 25 16 147 54 154 48 3 -3
-10 -19 -27 -37z m-2061 13 c60 -17 79 -43 79 -107 0 -53 -1 -55 -17 -41 -34
30 -82 48 -128 48 -53 0 -58 13 -13 36 l32 17 -32 27 c-18 14 -32 30 -32 35 0
8 53 1 111 -15z m284 -131 c69 -33 125 -65 125 -70 0 -14 -48 -11 -81 7 -17 8
-40 14 -52 12 -20 -3 -22 -8 -19 -55 3 -48 2 -51 -17 -46 -18 5 -21 13 -21 65
0 57 -2 61 -40 95 -40 36 -49 53 -30 53 5 0 66 -27 135 -61z m1566 42 c-6 -11
-23 -28 -38 -39 -25 -18 -29 -28 -33 -89 -4 -54 -8 -68 -22 -71 -15 -3 -18 4
-18 35 0 64 -10 70 -74 48 -41 -14 -59 -16 -67 -8 -19 19 -3 30 80 58 44 14
97 39 118 55 46 34 69 39 54 11z m-1660 -79 c-19 -6 -50 18 -44 34 5 13 9 11
30 -8 13 -12 20 -24 14 -26z m1646 1 c-8 -8 -23 -13 -33 -11 -17 3 -16 7 11
33 26 27 30 28 33 11 2 -10 -3 -25 -11 -33z m-1647 -13 c12 0 14 -13 12 -75
-3 -67 -6 -75 -24 -75 -11 0 -33 13 -49 29 -26 27 -29 36 -29 95 l0 66 37 -20
c21 -11 45 -20 53 -20z m1700 -24 c0 -30 -4 -66 -10 -80 -10 -27 -64 -61 -80
-51 -8 5 -8 66 -1 138 1 4 7 7 15 7 8 0 24 9 37 20 13 10 27 19 32 20 4 0 7
-24 7 -54z m-1509 -16 c23 0 27 -4 24 -21 -6 -32 -11 -34 -56 -19 -52 17 -85
43 -75 58 5 9 16 8 43 -3 19 -8 48 -15 64 -15z m1334 -10 c-8 -13 -89 -50
-111 -50 -9 0 -13 9 -12 25 2 19 8 25 28 25 14 1 39 7 55 14 31 14 53 6 40
-14z"/>
<path d="M2170 488 c-3 -11 -7 -26 -9 -38 0 -5 -8 -10 -16 -10 -8 0 -15 -5
-15 -11 0 -5 5 -7 11 -3 6 3 15 0 20 -7 13 -21 21 -4 16 37 -2 22 -5 36 -7 32z"/>
<path d="M197 473 c5 -13 2 -15 -15 -11 -12 4 -22 2 -22 -3 0 -5 7 -9 15 -9 8
0 15 -9 15 -20 0 -11 5 -20 10 -20 6 0 9 6 8 13 -2 6 3 11 10 10 6 -2 12 2 12
7 0 6 -4 10 -10 10 -5 0 -10 9 -10 20 0 11 -4 20 -10 20 -5 0 -7 -7 -3 -17z"/>
<path d="M1815 320 c-3 -5 -2 -10 4 -10 5 0 13 5 16 10 3 6 2 10 -4 10 -5 0
-13 -4 -16 -10z"/>
<path d="M1057 313 c-4 -3 -7 -24 -7 -45 0 -27 4 -38 15 -38 11 0 15 12 15 45
0 42 -7 54 -23 38z"/>
<path d="M1146 305 c4 -9 0 -15 -10 -15 -9 0 -16 5 -16 12 0 6 -3 8 -7 4 -11
-11 -12 -65 -2 -72 5 -3 9 4 9 16 0 13 5 20 13 17 6 -2 11 -12 11 -21 -1 -9 2
-16 7 -16 14 0 22 27 13 42 -5 7 -7 21 -6 31 2 9 -1 17 -7 17 -6 0 -8 -7 -5
-15z"/>
<path d="M1184 309 c-3 -6 -1 -16 4 -21 8 -8 11 -5 9 11 -1 24 -3 25 -13 10z"/>
<path d="M1217 305 c3 -9 -1 -23 -9 -33 -31 -35 -30 -42 1 -42 17 0 31 5 31
10 0 6 -7 10 -17 10 -15 0 -14 2 2 20 17 19 15 50 -4 50 -6 0 -8 -7 -4 -15z"/>
<path d="M1260 307 c0 -9 10 -12 30 -9 17 2 30 8 30 13 0 5 -13 9 -30 9 -18 0
-30 -5 -30 -13z"/>
<path d="M1291 272 c-13 -25 -14 -42 -2 -42 8 0 23 52 16 58 -2 2 -8 -5 -14
-16z"/>
<path d="M500 170 c0 -29 5 -42 19 -50 25 -13 42 -13 19 1 -12 7 -18 22 -18
49 0 22 -4 40 -10 40 -5 0 -10 -18 -10 -40z"/>
<path d="M1826 179 c-9 -45 -8 -49 9 -43 8 4 15 1 15 -5 0 -6 7 -11 15 -11 8
0 15 1 15 3 0 7 -41 87 -44 87 -2 0 -6 -14 -10 -31z"/>
<path d="M598 140 c15 -27 28 -43 30 -35 3 15 -38 85 -50 85 -5 0 4 -22 20
-50z"/>
<path d="M1780 180 c0 -5 5 -10 11 -10 5 0 7 5 4 10 -3 6 -8 10 -11 10 -2 0
-4 -4 -4 -10z"/>
<path d="M1740 159 c-17 -31 -4 -69 22 -69 21 0 21 1 4 13 -14 10 -17 23 -14
45 5 37 3 40 -12 11z"/>
<path d="M656 123 c1 -26 6 -49 11 -50 10 -4 5 78 -6 89 -4 4 -6 -13 -5 -39z"/>
<path d="M694 138 c10 -44 26 -81 32 -75 3 3 1 23 -6 44 -15 46 -36 71 -26 31z"/>
<path d="M1658 110 c4 -41 14 -56 32 -45 6 4 4 12 -5 21 -8 9 -15 26 -15 40 0
13 -3 24 -8 24 -4 0 -6 -18 -4 -40z"/>
<path d="M765 95 c0 -31 4 -45 14 -45 7 0 11 6 8 14 -3 7 0 19 6 25 8 8 8 11
-2 11 -8 0 -11 7 -8 20 3 11 0 20 -6 20 -7 0 -12 -18 -12 -45z"/>
<path d="M1600 131 c0 -23 24 -71 35 -71 11 0 10 8 -3 40 -16 36 -32 53 -32
31z"/>
<path d="M805 120 c3 -5 8 -10 11 -10 2 0 4 5 4 10 0 6 -5 10 -11 10 -5 0 -7
-4 -4 -10z"/>
<path d="M838 85 c2 -25 7 -45 11 -45 4 0 6 12 5 28 -1 15 -3 35 -3 45 -1 9
-4 17 -9 17 -4 0 -6 -20 -4 -45z"/>
<path d="M1514 106 c-8 -32 -2 -58 14 -64 10 -3 10 2 1 21 -8 18 -8 30 0 46 8
13 8 21 2 21 -6 0 -13 -11 -17 -24z"/>
<path d="M1555 120 c3 -5 8 -10 11 -10 2 0 4 5 4 10 0 6 -5 10 -11 10 -5 0 -7
-4 -4 -10z"/>
<path d="M874 78 c1 -37 4 -43 24 -44 12 -1 22 3 22 8 0 6 -6 8 -14 5 -18 -7
-25 11 -19 46 3 15 1 27 -5 27 -5 0 -9 -19 -8 -42z"/>
<path d="M935 110 c3 -5 8 -10 11 -10 2 0 4 5 4 10 0 6 -5 10 -11 10 -5 0 -7
-4 -4 -10z"/>
<path d="M1380 111 c0 -5 5 -13 10 -16 6 -3 10 -2 10 4 0 5 -4 13 -10 16 -5 3
-10 2 -10 -4z"/>
<path d="M1418 75 c2 -25 7 -45 11 -45 3 0 6 20 6 45 0 25 -5 45 -10 45 -6 0
-9 -19 -7 -45z"/>
<path d="M978 73 c5 -59 10 -63 11 -10 1 26 -3 47 -7 47 -4 0 -6 -17 -4 -37z"/>
<path d="M1015 65 c0 -25 5 -45 10 -45 6 0 9 17 7 41 -3 32 -1 40 9 37 9 -3
14 -19 14 -42 0 -32 2 -34 13 -19 15 21 15 29 2 54 -6 10 -21 19 -33 19 -19 0
-22 -5 -22 -45z"/>
<path d="M1106 102 c-8 -14 13 -82 26 -82 11 0 9 18 -6 59 -8 22 -15 31 -20
23z"/>
<path d="M1160 60 c0 -27 5 -50 10 -50 6 0 10 23 10 50 0 28 -4 50 -10 50 -5
0 -10 -22 -10 -50z"/>
<path d="M1265 65 c0 -25 5 -45 10 -45 6 0 9 17 7 40 -3 33 -1 40 13 40 14 0
16 -7 13 -40 -3 -35 -2 -38 11 -25 22 22 3 69 -29 73 -23 3 -25 0 -25 -43z"/>
<path d="M1345 65 c0 -43 2 -46 24 -43 14 2 26 9 27 16 1 7 0 8 -3 2 -7 -16
-33 -12 -33 5 0 8 5 15 10 15 6 0 10 5 10 11 0 5 -4 7 -10 4 -5 -3 -10 3 -10
14 0 12 -3 21 -7 21 -5 0 -8 -20 -8 -45z"/>
<path d="M910 80 c6 -11 17 -20 25 -20 7 0 16 -6 18 -12 4 -8 6 -7 6 3 1 9
-10 24 -24 33 -32 21 -38 20 -25 -4z"/>
<path d="M1205 60 c0 -21 3 -36 8 -33 10 6 9 61 -1 67 -4 2 -8 -13 -7 -34z"/>
<path d="M1455 40 c-3 -5 -1 -10 4 -10 6 0 11 5 11 10 0 6 -2 10 -4 10 -3 0
-8 -4 -11 -10z"/>
</g>
</svg>
